<svg width="1000" height="1000" viewBox="0 0 1000 1000" fill="none" xmlns="http://www.w3.org/2000/svg">
  <path d="M931.177 657.171C932.749 652.852 934.905 649.234 937.643 646.318C940.443 643.424 943.591 641.495 947.086 640.531C950.581 639.568 954.18 639.759 957.882 641.107L953.772 652.398C950.906 651.634 948.23 651.883 945.744 653.144C943.236 654.468 941.342 656.888 940.062 660.405C938.737 664.045 938.568 667.197 939.555 669.862C940.603 672.55 942.515 674.399 945.292 675.409C947.451 676.195 949.445 676.187 951.274 675.386C953.081 674.646 954.703 673.454 956.139 671.811C957.553 670.23 959.299 667.93 961.375 664.913C964.013 661.121 966.37 658.101 968.446 655.852C970.561 653.688 973.159 652.118 976.239 651.142C979.319 650.167 982.864 650.409 986.875 651.869C990.577 653.217 993.479 655.321 995.582 658.183C997.685 661.044 998.87 664.41 999.138 668.281C999.407 672.152 998.743 676.278 997.149 680.658C994.881 686.89 991.455 691.408 986.871 694.211C982.326 697.099 977.26 697.771 971.674 696.226L975.918 684.565C978.33 685.233 980.739 684.852 983.146 683.423C985.553 681.993 987.363 679.612 988.576 676.28C989.676 673.257 989.803 670.508 988.957 668.034C988.111 665.56 986.237 663.795 983.338 662.74C981.363 662.021 979.515 662.012 977.792 662.713C976.109 663.498 974.561 664.681 973.146 666.262C971.732 667.844 970.01 670.082 967.978 672.976C965.256 676.806 962.826 679.835 960.688 682.061C958.528 684.349 955.877 685.97 952.735 686.923C949.633 687.959 946.045 687.737 941.973 686.255C938.703 685.064 935.944 683.047 933.695 680.202C931.424 677.419 930.011 674.005 929.457 669.96C928.942 666 929.516 661.737 931.177 657.171Z" fill="black"/>
  <path d="M945.032 717.167C950.832 720.516 955.263 724.856 958.326 730.188C961.356 735.576 962.821 741.312 962.721 747.396C962.644 753.568 961.014 759.413 957.829 764.929C954.185 771.24 949.388 775.939 943.437 779.023C937.51 782.197 931.063 783.252 924.097 782.187L930.843 770.501C934.857 770.772 938.42 769.985 941.531 768.142C944.642 766.299 947.232 763.586 949.3 760.004C951.565 756.081 952.703 752.074 952.713 747.986C952.723 743.898 951.588 740.02 949.307 736.353C946.994 732.743 943.648 729.674 939.27 727.146C934.892 724.619 930.561 723.255 926.278 723.057C921.962 722.916 918.008 723.855 914.416 725.875C910.88 727.928 907.98 730.916 905.714 734.84C903.646 738.422 902.592 742.021 902.551 745.637C902.511 749.253 903.611 752.731 905.852 756.072L899.105 767.758C894.699 762.257 892.389 756.147 892.175 749.427C891.928 742.764 893.626 736.276 897.27 729.965C900.487 724.392 904.705 720.042 909.923 716.913C915.198 713.817 920.926 712.234 927.108 712.164C933.257 712.151 939.232 713.818 945.032 717.167Z" fill="black"/>
  <path d="M844.486 804.497L875.59 810.025L881.098 803.461L860.124 785.862L867.341 777.261L919.777 821.26L904.583 839.367C901.206 843.391 897.653 846.195 893.924 847.78C890.152 849.415 886.514 849.92 883.011 849.294C879.465 848.719 876.233 847.207 873.316 844.759C869.896 841.889 867.621 838.267 866.493 833.891C865.372 829.608 866.04 824.983 868.495 820.014L835.877 814.758L844.486 804.497ZM887.964 809.222L879.987 818.729C877.286 821.948 876.065 825.038 876.324 827.998C876.54 831.008 878.007 833.653 880.723 835.932C883.439 838.211 886.227 839.179 889.087 838.836C891.996 838.534 894.823 836.749 897.566 833.48L905.543 823.973L887.964 809.222Z" fill="black"/>
  <path d="M795.001 851.555C799.88 847.461 805.331 844.815 811.355 843.618C817.371 842.513 823.295 842.985 829.128 845.033C834.953 847.174 840.018 850.809 844.323 855.94C848.628 861.07 851.307 866.664 852.362 872.722C853.366 878.822 852.781 884.713 850.606 890.395C848.423 896.17 844.892 901.104 840.013 905.198C835.084 909.334 829.611 911.955 823.596 913.06C817.572 914.257 811.669 913.811 805.886 911.72C800.104 909.63 795.06 906.019 790.755 900.889C786.45 895.758 783.749 890.139 782.652 884.031C781.598 877.973 782.162 872.057 784.345 866.282C786.52 860.6 790.072 855.691 795.001 851.555ZM801.269 859.024C797.798 861.936 795.359 865.312 793.951 869.15C792.586 873.039 792.372 877.075 793.311 881.258C794.242 885.534 796.332 889.609 799.582 893.482C802.832 897.355 806.461 900.096 810.468 901.704C814.425 903.356 818.415 903.821 822.44 903.101C826.464 902.382 830.212 900.566 833.682 897.653C837.153 894.741 839.592 891.366 841 887.528C842.408 883.689 842.667 879.657 841.779 875.432C840.84 871.248 838.745 867.22 835.495 863.347C832.246 859.474 828.621 856.687 824.622 854.985C820.615 853.376 816.578 852.907 812.511 853.576C808.487 854.296 804.739 856.112 801.269 859.024Z" fill="black"/>
  <path d="M734.326 905.897L714.282 917.47L709.751 909.623L739.519 892.436L773.744 951.716L764.021 957.33L734.326 905.897Z" fill="black"/>
  <path d="M660.283 940.421L638.534 948.337L635.434 939.822L667.734 928.066L691.146 992.389L680.595 996.229L660.283 940.421Z" fill="black"/>
  <path d="M463.058 1000V990.545H536.925L536.925 1000H463.058Z" fill="black"/>
  <path d="M342.829 931.177C347.148 932.749 350.766 934.905 353.682 937.643C356.576 940.443 358.505 943.591 359.469 947.086C360.432 950.581 360.241 954.18 358.893 957.882L347.602 953.772C348.366 950.906 348.117 948.23 346.856 945.744C345.532 943.236 343.112 941.342 339.595 940.062C335.955 938.737 332.803 938.568 330.138 939.555C327.45 940.603 325.601 942.515 324.591 945.292C323.805 947.451 323.813 949.445 324.614 951.274C325.354 953.081 326.546 954.702 328.189 956.139C329.771 957.553 332.07 959.298 335.087 961.375C338.879 964.013 341.899 966.37 344.148 968.446C346.312 970.561 347.882 973.159 348.858 976.239C349.833 979.319 349.591 982.864 348.131 986.875C346.783 990.577 344.679 993.479 341.817 995.582C338.956 997.685 335.59 998.87 331.719 999.138C327.848 999.407 323.722 998.743 319.342 997.149C313.11 994.881 308.592 991.455 305.789 986.871C302.901 982.326 302.23 977.26 303.774 971.674L315.435 975.918C314.767 978.33 315.148 980.739 316.577 983.146C318.007 985.553 320.388 987.363 323.72 988.576C326.743 989.676 329.492 989.803 331.966 988.957C334.44 988.111 336.205 986.237 337.26 983.338C337.979 981.363 337.988 979.515 337.287 977.792C336.502 976.109 335.319 974.561 333.738 973.147C332.156 971.732 329.918 970.01 327.024 967.978C323.194 965.256 320.165 962.826 317.939 960.688C315.651 958.528 314.03 955.877 313.077 952.735C312.041 949.633 312.263 946.045 313.745 941.973C314.936 938.703 316.953 935.944 319.798 933.695C322.581 931.424 325.995 930.011 330.04 929.457C334 928.942 338.263 929.516 342.829 931.177Z" fill="black"/>
  <path d="M282.833 945.032C279.484 950.832 275.144 955.263 269.812 958.326C264.424 961.356 258.688 962.821 252.605 962.721C246.432 962.644 240.587 961.014 235.071 957.829C228.76 954.185 224.062 949.388 220.977 943.437C217.803 937.51 216.748 931.063 217.813 924.097L229.499 930.843C229.229 934.857 230.015 938.42 231.858 941.531C233.701 944.642 236.414 947.232 239.996 949.3C243.92 951.565 247.926 952.703 252.014 952.713C256.102 952.723 259.98 951.588 263.647 949.307C267.257 946.994 270.326 943.648 272.854 939.27C275.382 934.892 276.745 930.561 276.943 926.278C277.084 921.962 276.145 918.008 274.125 914.416C272.072 910.88 269.084 907.98 265.16 905.714C261.578 903.646 257.979 902.592 254.363 902.551C250.747 902.511 247.269 903.611 243.928 905.852L232.242 899.105C237.743 894.699 243.853 892.389 250.573 892.175C257.236 891.928 263.724 893.626 270.035 897.27C275.608 900.487 279.959 904.705 283.087 909.923C286.183 915.198 287.766 920.927 287.836 927.108C287.849 933.257 286.182 939.232 282.833 945.032Z" fill="black"/>
  <path d="M195.503 844.487L189.975 875.59L196.539 881.098L214.138 860.124L222.739 867.341L178.74 919.777L160.633 904.583C156.609 901.207 153.805 897.653 152.22 893.924C150.585 890.152 150.08 886.514 150.706 883.011C151.281 879.465 152.793 876.233 155.241 873.316C158.111 869.896 161.733 867.621 166.109 866.493C170.392 865.372 175.017 866.04 179.986 868.495L185.242 835.877L195.503 844.487ZM190.778 887.964L181.271 879.987C178.052 877.286 174.962 876.065 172.002 876.324C168.992 876.541 166.347 878.007 164.068 880.723C161.789 883.439 160.821 886.227 161.164 889.087C161.466 891.996 163.251 894.823 166.52 897.566L176.027 905.543L190.778 887.964Z" fill="black"/>
  <path d="M148.445 795.001C152.539 799.88 155.185 805.331 156.382 811.355C157.487 817.371 157.015 823.295 154.967 829.128C152.826 834.953 149.191 840.018 144.06 844.323C138.93 848.628 133.336 851.307 127.278 852.362C121.178 853.366 115.287 852.781 109.605 850.606C103.83 848.423 98.8958 844.892 94.8019 840.013C90.6658 835.084 88.0452 829.612 86.9403 823.596C85.7429 817.572 86.1895 811.669 88.28 805.886C90.3705 800.104 93.981 795.06 99.1114 790.755C104.242 786.45 109.861 783.749 115.969 782.652C122.027 781.598 127.943 782.162 133.718 784.345C139.4 786.52 144.309 790.072 148.445 795.001ZM140.976 801.269C138.064 797.798 134.688 795.359 130.85 793.951C126.961 792.586 122.925 792.372 118.742 793.311C114.466 794.242 110.391 796.332 106.518 799.582C102.645 802.832 99.9045 806.461 98.2956 810.468C96.6444 814.425 96.1788 818.415 96.8986 822.44C97.6185 826.464 99.4345 830.212 102.347 833.682C105.259 837.153 108.634 839.592 112.472 841C116.311 842.408 120.343 842.667 124.568 841.779C128.752 840.84 132.78 838.745 136.653 835.495C140.526 832.246 143.313 828.621 145.015 824.622C146.624 820.615 147.093 816.578 146.424 812.511C145.704 808.487 143.888 804.739 140.976 801.269Z" fill="black"/>
  <path d="M94.1028 734.326L82.5303 714.282L90.3774 709.751L107.564 739.519L48.2841 773.744L42.6702 764.021L94.1028 734.326Z" fill="black"/>
  <path d="M59.579 660.283L51.663 638.534L60.1776 635.434L71.9338 667.734L7.61144 691.146L3.7713 680.595L59.579 660.283Z" fill="black"/>
  <path d="M0 463.058H9.45502L9.45503 536.925H2.15451e-06L0 463.058Z" fill="black"/>
  <path d="M68.8226 342.829C67.2507 347.148 65.0955 350.766 62.3571 353.682C59.557 356.576 56.4094 358.505 52.9142 359.469C49.4191 360.432 45.8205 360.241 42.1185 358.893L46.2282 347.602C49.0945 348.366 51.7704 348.117 54.2559 346.856C56.7638 345.532 58.6578 343.112 59.9378 339.595C61.2628 335.955 61.432 332.803 60.4455 330.138C59.3973 327.45 57.4849 325.601 54.7084 324.591C52.5489 323.805 50.5546 323.813 48.7256 324.614C46.9191 325.354 45.2975 326.546 43.861 328.189C42.4469 329.771 40.7016 332.07 38.6251 335.087C35.9874 338.879 33.6304 341.899 31.5542 344.148C29.4387 346.313 26.8409 347.882 23.7609 348.858C20.6809 349.833 17.1356 349.591 13.1251 348.131C9.42312 346.783 6.52074 344.679 4.41794 341.817C2.31515 338.956 1.12967 335.59 0.861551 331.719C0.593424 327.848 1.25658 323.722 2.85103 319.342C5.11919 313.11 8.54526 308.592 13.1292 305.789C17.6739 302.901 22.7397 302.23 28.3265 303.774L24.0821 315.435C21.6701 314.767 19.2606 315.148 16.8537 316.577C14.4467 318.007 12.6368 320.388 11.4242 323.72C10.3238 326.743 10.1968 329.492 11.0431 331.966C11.8894 334.44 13.7626 336.205 16.6625 337.26C18.6369 337.979 20.4853 337.988 22.2076 337.287C23.8908 336.502 25.4394 335.319 26.8535 333.738C28.2676 332.156 29.9905 329.918 32.022 327.024C34.7439 323.194 37.1738 320.165 39.3117 317.939C41.4721 315.651 44.1232 314.03 47.2649 313.078C50.3674 312.041 53.9547 312.263 58.0269 313.745C61.297 314.936 64.0564 316.953 66.3051 319.798C68.5762 322.581 69.9888 325.995 70.543 330.04C71.0579 334 70.4845 338.263 68.8226 342.829Z" fill="black"/>
  <path d="M54.9684 282.833C49.1683 279.484 44.7369 275.144 41.674 269.812C38.6439 264.424 37.179 258.688 37.2794 252.605C37.3558 246.432 38.9862 240.587 42.1707 235.072C45.8148 228.76 50.6123 224.062 56.5632 220.977C62.49 217.803 68.9367 216.748 75.9034 217.814L69.1569 229.499C65.143 229.229 61.5805 230.015 58.4693 231.858C55.3582 233.701 52.7685 236.414 50.7002 239.996C48.4349 243.92 47.2972 247.926 47.2872 252.014C47.2771 256.102 48.4123 259.98 50.6926 263.647C53.0058 267.257 56.3516 270.326 60.73 272.854C65.1085 275.382 69.4392 276.745 73.7222 276.943C78.0379 277.084 81.9921 276.145 85.5845 274.125C89.1201 272.072 92.0205 269.084 94.2858 265.16C96.354 261.578 97.4085 257.979 97.449 254.363C97.4895 250.747 96.3893 247.269 94.1482 243.928L100.895 232.242C105.301 237.743 107.611 243.853 107.825 250.573C108.072 257.236 106.374 263.724 102.73 270.035C99.5126 275.608 95.2949 279.959 90.0768 283.087C84.8019 286.183 79.0736 287.766 72.8918 287.836C66.7429 287.849 60.7684 286.182 54.9684 282.833Z" fill="black"/>
  <path d="M155.513 195.503L124.41 189.975L118.902 196.539L139.876 214.138L132.659 222.739L80.2232 178.74L95.4171 160.633C98.7935 156.609 102.347 153.805 106.076 152.22C109.848 150.585 113.486 150.08 116.989 150.706C120.535 151.281 123.767 152.793 126.684 155.241C130.104 158.111 132.379 161.733 133.507 166.109C134.628 170.392 133.96 175.017 131.505 179.986L164.123 185.242L155.513 195.503ZM112.036 190.778L120.013 181.271C122.714 178.052 123.935 174.962 123.676 172.002C123.46 168.992 121.993 166.347 119.277 164.068C116.561 161.789 113.773 160.821 110.913 161.164C108.004 161.466 105.177 163.251 102.434 166.52L94.4569 176.027L112.036 190.778Z" fill="black"/>
  <path d="M204.999 148.445C200.12 152.539 194.669 155.185 188.645 156.382C182.629 157.487 176.705 157.015 170.872 154.967C165.047 152.826 159.982 149.191 155.677 144.06C151.372 138.93 148.693 133.336 147.638 127.278C146.634 121.178 147.219 115.287 149.394 109.605C151.577 103.83 155.108 98.8958 159.987 94.8019C164.916 90.6658 170.389 88.0453 176.404 86.9403C182.428 85.7429 188.331 86.1895 194.114 88.28C199.896 90.3705 204.94 93.981 209.245 99.1115C213.55 104.242 216.251 109.861 217.348 115.969C218.402 122.027 217.838 127.943 215.655 133.718C213.48 139.4 209.928 144.309 204.999 148.445ZM198.731 140.976C202.202 138.064 204.641 134.688 206.049 130.85C207.414 126.961 207.628 122.925 206.689 118.742C205.758 114.466 203.668 110.391 200.418 106.518C197.168 102.646 193.539 99.9045 189.532 98.2956C185.575 96.6444 181.585 96.1788 177.56 96.8986C173.536 97.6185 169.788 99.4345 166.318 102.347C162.847 105.259 160.408 108.634 159 112.472C157.592 116.311 157.333 120.343 158.222 124.568C159.161 128.752 161.255 132.78 164.505 136.653C167.755 140.526 171.379 143.313 175.378 145.015C179.385 146.624 183.422 147.093 187.489 146.424C191.513 145.704 195.261 143.888 198.731 140.976Z" fill="black"/>
  <path d="M265.674 94.1029L285.718 82.5303L290.249 90.3774L260.481 107.564L226.256 48.2841L235.979 42.6701L265.674 94.1029Z" fill="black"/>
  <path d="M339.717 59.5792L361.467 51.663L364.566 60.1776L332.266 71.9339L308.854 7.61152L319.405 3.77137L339.717 59.5792Z" fill="black"/>
  <path d="M536.942 0L536.942 9.45507L463.075 9.45501L463.075 4.04017e-05L536.942 0Z" fill="black"/>
  <path d="M657.171 68.8227C652.852 67.2507 649.234 65.0955 646.318 62.3571C643.424 59.557 641.495 56.4093 640.531 52.9142C639.568 49.4191 639.759 45.8205 641.107 42.1185L652.398 46.2282C651.634 49.0945 651.883 51.7704 653.144 54.2559C654.468 56.7638 656.888 58.6578 660.405 59.9378C664.045 61.2628 667.197 61.432 669.862 60.4455C672.55 59.3973 674.399 57.4849 675.409 54.7084C676.195 52.5489 676.187 50.5547 675.386 48.7257C674.646 46.9191 673.454 45.2975 671.811 43.8609C670.23 42.4468 667.93 40.7015 664.913 38.6251C661.121 35.9874 658.101 33.6305 655.852 31.5542C653.688 29.4387 652.118 26.841 651.142 23.761C650.167 20.681 650.409 17.1357 651.869 13.1252C653.217 9.42319 655.321 6.52072 658.183 4.41793C661.044 2.31514 664.41 1.12974 668.281 0.861612C672.152 0.593485 676.278 1.25664 680.658 2.85109C686.89 5.11925 691.408 8.54531 694.211 13.1293C697.099 17.674 697.771 22.7397 696.226 28.3265L684.565 24.0821C685.233 21.6701 684.852 19.2607 683.423 16.8537C681.993 14.4467 679.612 12.6368 676.28 11.4241C673.257 10.3238 670.508 10.1967 668.034 11.0431C665.56 11.8894 663.795 13.7625 662.74 16.6624C662.021 18.6369 662.012 20.4852 662.713 22.2076C663.498 23.8908 664.681 25.4394 666.262 26.8536C667.844 28.2677 670.082 29.9905 672.976 32.0221C676.806 34.7439 679.835 37.1738 682.061 39.3117C684.349 41.4721 685.97 44.1232 686.923 47.2649C687.959 50.3674 687.737 53.9547 686.255 58.027C685.064 61.2971 683.047 64.0564 680.202 66.3051C677.419 68.5762 674.005 69.9888 669.96 70.543C666 71.0579 661.737 70.4845 657.171 68.8227Z" fill="black"/>
  <path d="M717.167 54.9684C720.516 49.1683 724.856 44.7369 730.188 41.674C735.576 38.6439 741.312 37.179 747.396 37.2794C753.568 37.3558 759.413 38.9862 764.928 42.1707C771.24 45.8148 775.939 50.6124 779.023 56.5632C782.197 62.49 783.252 68.9368 782.187 75.9035L770.501 69.1568C770.772 65.143 769.985 61.5805 768.142 58.4693C766.299 55.3582 763.586 52.7685 760.004 50.7002C756.08 48.4349 752.074 47.2973 747.986 47.2872C743.898 47.2772 740.02 48.4122 736.353 50.6926C732.743 53.0057 729.674 56.3516 727.146 60.7301C724.619 65.1086 723.255 69.4392 723.057 73.7222C722.916 78.038 723.855 81.9921 725.875 85.5845C727.928 89.1201 730.916 92.0205 734.84 94.2858C738.422 96.3541 742.021 97.4085 745.637 97.449C749.253 97.4895 752.731 96.3893 756.072 94.1482L767.758 100.895C762.257 105.301 756.147 107.611 749.427 107.825C742.764 108.073 736.276 106.374 729.965 102.73C724.392 99.5126 720.041 95.2949 716.913 90.0769C713.817 84.8019 712.234 79.0736 712.164 72.8919C712.151 66.743 713.818 60.7684 717.167 54.9684Z" fill="black"/>
  <path d="M804.497 155.514L810.025 124.41L803.461 118.902L785.862 139.876L777.261 132.659L821.26 80.2232L839.367 95.4172C843.391 98.7936 846.195 102.347 847.78 106.076C849.415 109.848 849.92 113.486 849.294 116.989C848.719 120.535 847.207 123.767 844.759 126.684C841.889 130.104 838.267 132.379 833.891 133.507C829.608 134.628 824.983 133.96 820.014 131.506L814.758 164.123L804.497 155.514ZM809.223 112.036L818.729 120.013C821.948 122.714 825.038 123.935 827.998 123.676C831.008 123.46 833.653 121.993 835.932 119.277C838.211 116.561 839.179 113.773 838.836 110.914C838.534 108.004 836.749 105.177 833.48 102.434L823.973 94.457L809.223 112.036Z" fill="black"/>
  <path d="M851.555 204.999C847.461 200.12 844.815 194.669 843.618 188.645C842.513 182.629 842.985 176.705 845.033 170.872C847.174 165.047 850.809 159.982 855.94 155.677C861.07 151.372 866.664 148.693 872.722 147.638C878.822 146.634 884.713 147.219 890.395 149.394C896.17 151.577 901.104 155.108 905.198 159.987C909.334 164.916 911.955 170.389 913.06 176.404C914.257 182.428 913.811 188.331 911.72 194.114C909.63 199.896 906.019 204.94 900.889 209.245C895.758 213.55 890.139 216.251 884.031 217.348C877.973 218.402 872.057 217.838 866.282 215.655C860.6 213.48 855.691 209.928 851.555 204.999ZM859.024 198.731C861.936 202.202 865.312 204.641 869.15 206.049C873.039 207.414 877.075 207.628 881.258 206.689C885.534 205.758 889.609 203.668 893.482 200.418C897.354 197.168 900.095 193.539 901.704 189.532C903.356 185.575 903.821 181.585 903.101 177.56C902.382 173.536 900.566 169.788 897.653 166.318C894.741 162.847 891.366 160.408 887.528 159C883.689 157.592 879.657 157.333 875.432 158.222C871.248 159.161 867.22 161.255 863.347 164.505C859.474 167.754 856.687 171.379 854.985 175.378C853.376 179.385 852.907 183.422 853.576 187.489C854.296 191.513 856.112 195.261 859.024 198.731Z" fill="black"/>
  <path d="M905.897 265.674L917.47 285.718L909.623 290.249L892.436 260.481L951.716 226.256L957.33 235.979L905.897 265.674Z" fill="black"/>
  <path d="M940.421 339.717L948.337 361.467L939.822 364.566L928.066 332.266L992.389 308.854L996.229 319.405L940.421 339.717Z" fill="black"/>
  <path d="M1000 536.942L990.545 536.942V463.075H1000V536.942Z" fill="black"/>
</svg>
